<?xml version="1.0" encoding="UTF-8"?>
<!-- Generator: Adobe Illustrator 15.0.2, SVG Export Plug-In . SVG Version: 6.00 Build 0)  -->
<!DOCTYPE svg PUBLIC "-//W3C//DTD SVG 1.1//EN" "http://www.w3.org/Graphics/SVG/1.1/DTD/svg11.dtd">
<svg xmlns="http://www.w3.org/2000/svg" xmlns:xlink="http://www.w3.org/1999/xlink" version="1.1" id="Layer_1" x="0px" y="0px" width="512px" height="512px" viewBox="0 0 512 512" enable-background="new 0 0 512 512" xml:space="preserve">
<path d="M256,0C114.562,0,0,114.562,0,256s114.562,256,256,256s256-114.562,256-256S397.438,0,256,0z M256,76.8  c42.375,0,76.8,34.432,76.8,76.8c0,42.494-34.425,76.801-76.8,76.801c-42.369,0-76.8-34.307-76.8-76.801  C179.2,111.231,213.631,76.8,256,76.8z M256,440.325c-64.125,0-120.45-32.775-153.6-82.438  c0.637-50.812,102.524-78.851,153.6-78.851s152.825,28.038,153.6,78.851C376.45,407.55,320.125,440.325,256,440.325z" fill="#000000"/>
</svg>
