<?xml version="1.0" encoding="utf-8"?>
<!-- Generator: Adobe Illustrator 15.0.2, SVG Export Plug-In . SVG Version: 6.00 Build 0)  -->
<!DOCTYPE svg PUBLIC "-//W3C//DTD SVG 1.1//EN" "http://www.w3.org/Graphics/SVG/1.1/DTD/svg11.dtd">
<svg version="1.1" id="Layer_1" xmlns="http://www.w3.org/2000/svg" xmlns:xlink="http://www.w3.org/1999/xlink" x="0px" y="0px"
	 width="512px" height="744.728px" viewBox="0 0 512 744.728" enable-background="new 0 0 512 744.728" xml:space="preserve">
<g>
	<path d="M465.454,46.546h-93.091C372.363,20.853,351.5,0,325.818,0H186.182c-25.693,0-46.545,20.853-46.545,46.546H46.546
		C20.853,46.546,0,67.397,0,93.091h512C512,67.397,491.137,46.546,465.454,46.546z M0,698.182c0,25.682,20.853,46.546,46.546,46.546
		h418.908c25.683,0,46.546-20.864,46.546-46.546V139.637H0V698.182z M372.363,256c0-12.841,10.433-23.272,23.273-23.272
		s23.272,10.432,23.272,23.272v372.363c0,12.842-10.432,23.273-23.272,23.273s-23.273-10.432-23.273-23.273V256z M232.728,256
		c0-12.841,10.432-23.272,23.272-23.272s23.272,10.432,23.272,23.272v372.363c0,12.842-10.432,23.273-23.272,23.273
		s-23.272-10.432-23.272-23.273V256z M93.091,256c0-12.841,10.432-23.272,23.272-23.272s23.273,10.432,23.273,23.272v372.363
		c0,12.842-10.433,23.273-23.273,23.273s-23.272-10.432-23.272-23.273V256z"/>
</g>
</svg>
